<svg id="Group_44" data-name="Group 44" xmlns="http://www.w3.org/2000/svg" width="136.991" height="132.863" viewBox="0 0 136.991 132.863">
  <path id="Path_86" data-name="Path 86" d="M607.432,687.795a66.415,66.415,0,0,1-5.584-132.585,62.273,62.273,0,0,1,27.091,3.361c4.628,1.678,6.793,5.457,5.426,9.573-1.3,3.907-5.433,5.8-9.911,4.373-12.37-3.931-24.606-3.939-36.693,1.093a51.573,51.573,0,1,0,68.328,30.255c-.829-2.333-1.375-4.629-.2-6.993a6.991,6.991,0,0,1,6.717-4.184,7.231,7.231,0,0,1,6.9,5,65.66,65.66,0,0,1,4.305,24.17,66.352,66.352,0,0,1-58.479,65.3C612.708,687.47,610.064,687.587,607.432,687.795Z" transform="translate(-541.101 -554.932)" fill="#43D7F1"/>
  <path id="Path_87" data-name="Path 87" d="M769,642.732c3.26-5.481,6.218-11.131,9.8-16.354,13.461-19.641,31.339-34.308,52.209-45.483,2.662-1.425,5.433-2.659,8.219-3.826.6-.251,1.481.169,2.232.28-.2.752-.15,1.792-.636,2.207-2.894,2.465-5.934,4.757-8.883,7.159-15.6,12.709-28.08,28.1-38.623,45.125a236.085,236.085,0,0,0-19.8,39.749,6.036,6.036,0,0,1-3.383,3.342c-2.028.555-3.034-1.473-3.778-3.113a139.61,139.61,0,0,0-15.244-26.625,56.948,56.948,0,0,0-16.084-15.015,4.312,4.312,0,0,1-1.9-3.26c.058-.815,1.693-1.947,2.792-2.189,8.38-1.842,15.752.724,22.063,6.087,3.579,3.04,6.528,6.824,9.743,10.291C768.248,641.663,768.671,642.306,769,642.732Z" transform="translate(-704.468 -573.697)" fill="#43D7F1"/>
</svg>



 